<?xml version="1.0" encoding="UTF-8"?>
<svg xmlns="http://www.w3.org/2000/svg" version="1.1" viewBox="0 0 1345 828">
  <defs>
    <style>
      .cls-1 {
        fill: #004ee4;
      }

      .cls-2 {
        fill: #a00707;
      }

      .cls-3 {
        fill: #b91712;
      }

      .cls-4 {
        fill: #ec3f31;
      }

      .cls-5 {
        fill: #651100;
      }

      .cls-6 {
        fill: #700000;
      }

      .cls-7 {
        fill: #e0d6d7;
      }

      .cls-8, .cls-9, .cls-10, .cls-11, .cls-12 {
        fill: #fff;
      }

      .cls-9 {
        opacity: .5;
      }

      .cls-13 {
        fill: #006eff;
      }

      .cls-14 {
        fill: #e23224;
      }

      .cls-10 {
        opacity: .3;
      }

      .cls-15 {
        fill: #540800;
      }

      .cls-16 {
        fill: #ffdede;
      }

      .cls-17 {
        fill: #fbb5b7;
      }

      .cls-11 {
        opacity: .4;
      }

      .cls-18 {
        fill: #c32112;
      }

      .cls-19 {
        fill: #691800;
      }

      .cls-20 {
        fill: #f49da4;
      }

      .cls-21 {
        fill: #6e1800;
      }

      .cls-22 {
        fill: #e57784;
      }

      .cls-12 {
        opacity: .6;
      }

      .cls-23 {
        fill: #5e0800;
      }

      .cls-24 {
        fill: #e22d24;
      }

      .cls-25 {
        fill: #c93939;
      }

      .cls-26 {
        fill: #5b0000;
      }

      .cls-27 {
        fill: #910202;
      }
    </style>
  </defs>
  <!-- Generator: Adobe Illustrator 28.7.1, SVG Export Plug-In . SVG Version: 1.2.0 Build 142)  -->
  <g>
    <g id="_x31_0n3">
      <g>
        <path class="cls-18" d="M621.78,296.49c34.12-10.88,49.1,259.97,96.55,278.28,7.59,2.92,34.56,4.4,34.56,14.76,0,10.83-31.19,12.75-50.64,5.06-25.54-10.1-118.37-286.02-80.47-298.11Z"/>
        <path class="cls-14" d="M642.1,324.64c-6.21-19.25-12.8-30.54-20.32-28.15-6.77,2.16-9.3,12.52-8.74,28.12,2.57,19.74,31.63,15.34,29.06.03Z"/>
        <path class="cls-4" d="M640.8,320.75c-5.83-16.86-12.02-26.49-19.02-24.25-5.95,1.9-8.62,10.14-8.8,22.71,4.65,20.1,29.29,16.92,27.82,1.55Z"/>
        <path class="cls-14" d="M718.33,574.78c-31.4-12.11-48.58-134.78-66.5-213.26-6.48-2.39-13.87-4.61-20.84-4.93,23.45,131,58.85,218.89,76.97,226.05,19.45,7.69,43.78,3.01,41.9,1.54-7.26-5.67-25.51-7.08-31.53-9.4Z"/>
        <path class="cls-4" d="M718.33,574.78c-31.4-12.11-48.58-134.78-66.5-213.26-3.53-1.3-7.34-2.55-11.2-3.48,7.34,87.45,51.29,213.89,69.41,221.05,19.45,7.69,36.75,3.13,34.79,2.33-8.58-3.48-21.6-4.76-26.51-6.65Z"/>
        <path class="cls-2" d="M728.88,599.73c-9.49,0-19.26-1.71-26.8-4.69-11.92-4.71-36.32-63.49-53.95-116.11-18.08-53.95-36.96-124.45-35.73-160.5.44-13.04,3.55-20.57,9.25-22.39.71-.23,1.43-.34,2.14-.34,15.64,0,26.84,55.31,39.81,119.35,14.22,70.21,30.33,149.79,54.92,159.28,2.02.78,5.45,1.45,9.43,2.24,10.73,2.12,25.43,5.02,25.43,12.96,0,7.53-13.19,10.19-24.48,10.19ZM623.77,296.65c-.61,0-1.23.1-1.85.3-5.27,1.68-8.16,8.92-8.59,21.52-2.24,66.07,67.25,267.06,89.09,275.7,7.44,2.94,17.08,4.63,26.46,4.63,11.72,0,23.54-2.86,23.54-9.25,0-7.17-14.26-9.99-24.67-12.04-4.02-.79-7.49-1.48-9.58-2.28-25.07-9.67-41.24-89.52-55.5-159.97-12.35-60.99-24.02-118.6-38.89-118.6Z"/>
        <path class="cls-18" d="M633.8,418.82c9.78-7.61,40.53,13.86,42.64,17.82,63.86-114.27,142.39-187.48,163.29-187.55,30.31-.1,129.93,186.21,150.35,217.31,20.42,31.1,63.74,95.75,81.99,96.43,12.72.47,47.12,6.13,47.12,18.85,0,13.67-48.27,14.86-63.14,7.54-22.83-11.24-70.88-83.24-94.76-122.82-23.87-39.58-55.44-98.17-122.98-189.75-93.93,76.5-131.71,184.92-150.88,189.82-23.42,5.98-69.65-35.19-53.63-47.65Z"/>
        <path class="cls-14" d="M633.8,418.82c9.78-7.61,40.53,13.86,42.64,17.82,63.86-114.27,142.39-187.48,163.29-187.55,30.31-.1,129.93,186.21,150.35,217.31,20.42,31.1,63.74,95.75,81.99,96.43,12.72.47,46.21,6.16,47.12,18.85.47,6.57-42.92,2.92-57.8-4.4-22.83-11.24-69.58-78.07-93.46-117.65-23.88-39.58-56.01-95.08-123.56-186.66-100.53,46.41-142.36,178.98-161.52,183.88-23.42,5.98-65.08-25.57-49.05-38.04Z"/>
        <path class="cls-4" d="M633.8,418.82c9.78-7.61,40.53,13.86,42.64,17.82,63.86-114.27,142.39-187.48,163.29-187.55,30.31-.1,129.93,186.21,150.35,217.31,20.42,31.1,63.74,95.75,81.99,96.43,10.6.39,35.61,4.4,44.19,13.07,7.06,7.9-38.03,2.74-52.91-4.59-22.83-11.24-68.95-75.63-92.83-115.21-23.88-39.58-56.98-94.68-124.52-186.25-104.92,40.09-142.11,172.35-165.75,180.83-22.75,8.16-62.47-19.4-46.45-31.86Z"/>
        <path class="cls-2" d="M1084.18,594.14c-11.85,0-22.71-1.72-28.34-4.5-23.36-11.5-72.32-85.48-94.96-123-4.15-6.88-8.59-14.44-13.29-22.43-22.69-38.6-53.76-91.45-109.37-166.88-59.05,48.22-95.57,108.61-119.76,148.61-14.25,23.57-23.67,39.13-30.91,40.98-1.57.4-3.29.61-5.11.61-18.75,0-46.27-21.66-51.5-36.9-1.81-5.26-.92-9.48,2.57-12.19,1.47-1.14,3.44-1.72,5.87-1.72,12.45,0,33.28,14.63,37,19.03,28.24-50.41,62.83-98.7,97.46-136.05,28.75-31,54.61-51.06,65.88-51.1,24.01,0,88.85,111.75,127.6,178.52,10.45,18.01,18.7,32.23,23.15,39.01,15.51,23.62,62.71,95.52,81.62,96.22,12.19.45,47.58,6.08,47.58,19.32,0,8.61-17.82,12.46-35.48,12.46ZM838.39,275.98l.29.4c55.82,75.68,86.97,128.67,109.71,167.36,4.7,8,9.14,15.55,13.29,22.42,22.58,37.43,71.4,111.24,94.56,122.64,5.52,2.71,16.22,4.4,27.93,4.4,16.64,0,34.54-3.6,34.54-11.52,0-11.86-32.93-17.87-46.67-18.38-19.39-.72-66.79-72.92-82.37-96.64-4.47-6.8-12.73-21.04-23.18-39.05-36.11-62.22-103.31-178.05-126.76-178.05-11.04.04-36.62,19.97-65.21,50.8-34.73,37.45-69.42,85.93-97.69,136.51l-.42.75-.41-.76c-1.69-3.17-24.11-19.19-36.64-19.19-2.22,0-3.99.51-5.29,1.52-3.18,2.48-3.94,6.23-2.26,11.14,5.14,14.98,32.18,36.26,50.61,36.26,1.74,0,3.38-.2,4.87-.58,6.87-1.75,16.71-18.03,30.34-40.56,24.28-40.14,60.96-100.79,120.36-149.17l.38-.31Z"/>
        <path class="cls-18" d="M512.58,390.62s-82.79,150.54-143.23,198.84c-15.11,12.07-49.01,15.87-49.01,24.35s27.8,11.31,53.25,2.83c25.45-8.48,130.93-167.98,149.97-207.09,7.37,13.63,41.65,60.89,59.06,47,17.42-13.89-59.78-87.5-70.04-65.92Z"/>
        <path class="cls-14" d="M512.58,390.62s-82.79,150.54-143.23,198.84c-15.11,12.07-49.01,15.87-49.01,24.35,0,5.42,25.25,4.64,50.7-3.84,25.45-8.48,132.06-170.42,151.1-209.54,1.84,3.41,5.45,9.49,10.11,16.47,13.96,20.96,38.09,2.59,15.72-15.37-15.63-12.56-31.18-19.79-35.4-10.9Z"/>
        <path class="cls-4" d="M512.58,390.62s-82.79,150.54-143.23,198.84c-13.83,11.06-43.43,15.17-48.32,22.29-.45.66,9.86,5.49,48.75-6.19,25.69-7.71,126.69-167.64,151.42-210.55,1.84,3.41,6.4,14.9,11.05,21.89,13.96,20.96,38.09,2.59,15.72-15.37-15.63-12.56-31.18-19.79-35.4-10.9Z"/>
        <path class="cls-2" d="M342.6,622.22c-13.8,0-22.72-3.3-22.72-8.42,0-4.79,9.14-7.88,20.71-11.8,10.01-3.39,21.36-7.23,28.48-12.92,59.67-47.68,142.28-197.19,143.11-198.69,1.31-2.77,3.73-4.18,7.18-4.18,17.96,0,58.06,38.3,65.1,58.41,2.01,5.74,1.49,9.87-1.54,12.28-2.19,1.75-4.74,2.63-7.58,2.63h0c-18.52,0-45.2-37.4-51.75-48.98-10.3,20.76-41.76,70.57-72.22,114.29-22.5,32.28-62.49,87.2-77.62,92.24-9.96,3.32-21.02,5.15-31.15,5.15ZM519.36,387.16c-3.05,0-5.19,1.23-6.35,3.67-.84,1.53-83.54,151.2-143.36,199-7.24,5.79-18.67,9.66-28.76,13.07-10.77,3.64-20.07,6.79-20.07,10.91,0,4.4,8.96,7.48,21.78,7.48,10.03,0,20.99-1.81,30.85-5.1,25.03-8.34,130.71-167.87,149.69-206.85l.4-.83.44.81c5.64,10.43,32.81,49.28,51.36,49.28,2.63,0,4.98-.82,7-2.42,2.68-2.14,3.09-5.92,1.23-11.23-7.56-21.6-47.76-57.78-64.21-57.78Z"/>
        <path class="cls-18" d="M555.14,398.38c1.83-22.54,34.87-59.84,74.92-57.49,40.05,2.36,75.87,44.29,88.59,84.35,15.55-9.42,11.78-17.58,13.19-30.23,1.41-12.65,10.4-93.93,103.67-97,124.09-4.08,229.01,186.13,170.58,245.35-27.04,27.4-66.47,10.93-111.83-2.51-70.53-20.89-131.94-19.15-167.75-104.45-38.33,52.93-67.23,56.72-97.39,45.71-30.16-11-78.22-31.43-73.98-83.73Z"/>
        <path class="cls-14" d="M648.41,457.33c34.45-4.29,67.42-27.38,62.2-51.77-16.54-33.07-47.06-62.7-80.55-64.67-24.22-1.42-45.87,11.65-59.61,27.19,15.2,25.12,4.15,41.29,19.08,63.07,20.14,29.38,39.96,28.54,58.87,26.18Z"/>
        <path class="cls-4" d="M622.25,446.03c23.56,8.48,64.14-.15,79.21-24.65,8.22-13.7,1.8-28.81-9.1-43.84-16.77-20.26-38.8-35.27-62.3-36.65-21.48-1.26-40.94,8.88-54.65,22.04,20.41,22.78,13.95,37.17,21.7,56.97,2.83,7.54,17.59,23.31,25.13,26.13Z"/>
        <path class="cls-10" d="M669.78,369.09c-1.37,4.88-12.71-2.69-27.1-7.55-19.72-6.66-36.44-3.95-36.5-8.58-.07-5.1,19.67-11.46,40.95-4.44,16.94,5.59,24.02,15.69,22.66,20.57Z"/>
        <path class="cls-14" d="M994.65,529.74c-.23.02-.44.03-.67.04-12.63.74-26.27-3.42-39.41-8.73-16-6.45-31.29-14.62-43.18-17.83-5.88-1.59-11.7-2.94-17.94-4.35-16.94-3.82-37.01-8.04-69.76-18.47-.19-.05-.38-.12-.57-.19-15.75-5.19-34-18.65-49.29-35.97-25.18-28.53-42.31-67.54-26.89-97.49,3.65-6.36,8.17-12.71,13.81-18.62.25-.27.51-.54.77-.8.33-.35.67-.69,1.01-1.02.34-.35.69-.69,1.04-1.02.69-.67,1.4-1.33,2.13-1.98,1.24-1.12,2.53-2.22,3.86-3.29.58-.46,1.17-.93,1.77-1.38.3-.24.6-.46.9-.68.48-.37.97-.73,1.47-1.07,2.28-1.62,4.68-3.17,7.22-4.63.34-.21.69-.4,1.04-.59,1.06-.59,2.14-1.18,3.24-1.73.32-.17.65-.33.98-.49.71-.36,1.42-.7,2.15-1.03.67-.32,1.35-.62,2.04-.92.69-.3,1.38-.59,2.08-.89.23-.1.45-.19.69-.27.64-.26,1.3-.52,1.96-.76.8-.31,1.62-.6,2.45-.89.73-.25,1.46-.5,2.2-.75.99-.32,2-.63,3.03-.93.81-.24,1.63-.47,2.47-.69.06-.02.13-.04.2-.06.69-.18,1.37-.36,2.07-.52.96-.25,1.94-.48,2.93-.7.41-.08.81-.17,1.21-.26,1.45-.3,2.94-.58,4.45-.85.49-.08.99-.16,1.49-.24.31-.06.62-.1.94-.15.54-.08,1.08-.16,1.63-.24.69-.1,1.38-.19,2.09-.27.57-.08,1.15-.14,1.73-.2.25-.04.48-.06.73-.08.5-.06,1.01-.11,1.52-.15.87-.08,1.77-.16,2.66-.23.82-.07,1.65-.12,2.48-.16.53-.04,1.06-.07,1.6-.09.84-.04,1.68-.08,2.53-.11,2.07-.07,4.15-.08,6.21-.05.56,0,1.11.03,1.67.05.29,0,.58.02.86.03.82.04,1.63.08,2.45.12.38.03.77.05,1.17.08.12,0,.25.02.37.03.41.03.81.06,1.22.1.35.03.7.06,1.05.09.76.07,1.53.14,2.29.23.47.05.93.1,1.4.16,1.51.19,3,.4,4.5.63.69.1,1.38.22,2.05.34,1.26.22,2.54.46,3.8.72,0,0,0,0,.02,0,22.4,4.59,43.74,15.04,63.08,29.25,0,0,.02,0,.03.03.1.07.19.13.28.21.76.56,1.53,1.13,2.28,1.69,1.64,1.24,3.25,2.51,4.85,3.81.46.37.92.73,1.38,1.1.73.6,1.45,1.2,2.17,1.81.9.75,1.79,1.51,2.68,2.28,2.72,2.36,5.39,4.79,8,7.29.8.75,1.59,1.52,2.38,2.29,1.81,1.77,3.59,3.57,5.34,5.4.71.73,1.4,1.46,2.09,2.21,1.43,1.53,2.84,3.07,4.23,4.64.43.48.86.97,1.29,1.46,1.06,1.21,2.1,2.42,3.14,3.65.33.39.65.77.98,1.17,1.05,1.25,2.08,2.52,3.1,3.79.71.88,1.4,1.76,2.1,2.65.85,1.08,1.69,2.18,2.52,3.27.84,1.1,1.66,2.21,2.47,3.31.81,1.11,1.61,2.23,2.4,3.34.41.57.79,1.12,1.19,1.69.4.56.78,1.12,1.17,1.69.4.56.77,1.12,1.15,1.69.39.57.76,1.14,1.14,1.71.39.57.76,1.13,1.13,1.71,1.11,1.71,2.21,3.43,3.28,5.15.36.58.72,1.15,1.07,1.72.36.58.71,1.15,1.05,1.73.34.56.67,1.11,1,1.67,2.14,3.63,4.17,7.28,6.11,10.95h0c10.76,20.48,18.18,41.41,21.34,60.81.06.28.1.57.14.85.1.65.21,1.3.3,1.96.09.66.19,1.31.26,1.96,3.27,28.68-9.27,48.04-27.01,49.29Z"/>
        <path class="cls-4" d="M1017.65,490.56c-1.62,9.34-5.04,17.83-10.86,23.14-3.23,2.94-7.2,4.9-12.01,5.47-11.14,1.32-22-1.82-32.43-6.45-15.8-7.03-30.58-17.48-43.73-21.04-5.22-1.41-10.19-2.52-15.41-3.6-15.59-3.26-33.47-6.39-67.39-17.15-2.19-.7-4.43-1.42-6.75-2.18-15.96-5.22-32.07-18.14-45.01-34.56-20.83-26.4-33.44-61.84-23.95-88.83,3.72-10.56,9.36-20.85,18.89-29.14,8.73-7.58,20.73-13.48,37.5-16.37.36-.06.72-.11,1.08-.17.31-.06.62-.1.94-.15.54-.08,1.08-.16,1.63-.24.69-.1,1.38-.19,2.09-.27.05,0,.1,0,.13-.02.48-.06.97-.11,1.46-.16.05,0,.09,0,.14-.02.25-.04.48-.06.73-.08.5-.06,1.01-.11,1.52-.15.43-.04.88-.08,1.33-.12.44-.04.89-.07,1.34-.1.37-.03.72-.06,1.09-.08.07,0,.14,0,.21,0,.82-.06,1.65-.1,2.49-.14.09,0,.2,0,.29-.02.84-.04,1.68-.08,2.53-.11,1.94-.07,3.89-.08,5.82-.05.44,0,.88,0,1.31.03.25,0,.5,0,.74.02.29,0,.58.02.86.03.1,0,.18,0,.27,0,.61.03,1.22.06,1.83.09.12,0,.24,0,.35.02.38.03.77.05,1.17.08.12,0,.25.02.37.03.41.03.81.06,1.22.1.35.03.7.06,1.05.09.72.07,1.43.13,2.15.22.63.06,1.25.14,1.88.22,1.39.17,2.77.37,4.16.59.48.08.95.15,1.42.24.62.1,1.24.22,1.86.33.88.16,1.75.34,2.63.52,23,4.76,44.84,15.74,64.55,30.62,29.23,22.06,53.76,52.72,70.49,84.39,6.48,12.27,11.79,24.69,15.75,36.83,3.25,9.97,4.57,24.92,2.28,38.17Z"/>
        <path class="cls-15" d="M874.84,417.07c-20.37,51.17-68.15,81.26-105.49,79h-.02c-12.57-9.93-23.88-22.94-33.73-40.77,53.31,10,91.48-85.16,72.58-125.43-11.66-24.85-28.16-17.1-47.44-1.74v-.02c15.3-16.06,38.75-28.9,74.77-30.09,9.82-.32,19.52.58,29.02,2.52,0,0,0,0,.02,0,17.62,10.47,32.55,60.61,10.29,116.53Z"/>
        <path class="cls-5" d="M874.84,417.07c-11.12,27.94-30.42,49.6-51.73,63.13-15.75-5.19-34-18.65-49.29-35.97,31.25-25.27,48.28-84.71,34.36-114.37-11.66-24.85-28.16-17.1-47.44-1.74v-.02c.25-.26.51-.53.77-.78.33-.35.67-.69,1.01-1.02.34-.35.69-.69,1.04-1.02.69-.67,1.4-1.33,2.13-1.98,1.24-1.12,2.53-2.22,3.86-3.29.58-.47,1.17-.93,1.77-1.38.3-.24.6-.46.9-.68.48-.37.97-.73,1.47-1.07,2.28-1.62,4.68-3.17,7.22-4.63.34-.21.69-.4,1.04-.59,1.06-.59,2.14-1.18,3.24-1.73.32-.17.65-.33.98-.49.71-.36,1.42-.7,2.15-1.03.67-.32,1.35-.62,2.04-.92.69-.3,1.38-.59,2.08-.89.23-.1.45-.19.69-.27.64-.26,1.3-.52,1.96-.76.8-.31,1.62-.6,2.45-.89.73-.25,1.46-.5,2.2-.75.99-.32,2-.63,3.03-.93.81-.24,1.63-.47,2.47-.69.06-.02.13-.04.2-.06.69-.18,1.37-.36,2.07-.52.96-.25,1.94-.48,2.93-.7.41-.08.81-.17,1.21-.26,1.45-.3,2.94-.58,4.45-.85.49-.08.99-.16,1.49-.24.31-.06.62-.1.94-.15.54-.08,1.08-.16,1.63-.24.69-.1,1.38-.19,2.09-.27.57-.08,1.15-.14,1.73-.2.25-.04.48-.06.73-.08.5-.06,1.01-.11,1.52-.15.87-.08,1.77-.16,2.66-.23.82-.07,1.65-.12,2.48-.16.53-.04,1.06-.07,1.6-.09.84-.04,1.68-.08,2.53-.11,2.07-.07,4.15-.08,6.21-.05.56,0,1.11.03,1.67.05.29,0,.58.02.86.03.82.04,1.63.08,2.45.12.38.03.77.05,1.17.08.12,0,.25.02.37.03.41.03.81.06,1.22.1.35.03.7.06,1.05.09.76.07,1.53.14,2.29.23.47.05.93.1,1.4.16,1.51.19,3,.4,4.5.63.69.1,1.38.22,2.05.34,1.26.22,2.54.46,3.8.72,0,0,0,0,.02,0,17.62,10.47,32.55,60.61,10.29,116.53Z"/>
        <path class="cls-21" d="M874.84,417.07c-8.86,22.25-22.9,40.52-39.02,53.86-2.19-.7-4.43-1.42-6.75-2.18-15.96-5.22-32.07-18.14-45.01-34.56,24.53-28.58,36.42-78.1,24.12-104.33-7.78-16.57-17.7-18.64-29.17-13.64-5.73,2.51-11.84,6.78-18.27,11.89v-.02c.25-.26.51-.53.77-.78.33-.35.67-.69,1.01-1.02.34-.35.69-.69,1.04-1.02.69-.67,1.4-1.33,2.13-1.98,1.24-1.12,2.53-2.22,3.86-3.29.58-.47,1.17-.93,1.77-1.38.3-.24.6-.46.9-.68.48-.37.97-.73,1.47-1.07,2.28-1.62,4.68-3.17,7.22-4.63.34-.21.69-.4,1.04-.59,1.06-.59,2.14-1.18,3.24-1.73.32-.17.65-.33.98-.49.71-.36,1.42-.7,2.15-1.03.67-.32,1.35-.62,2.04-.92.69-.3,1.38-.59,2.08-.89.23-.1.45-.19.69-.27.64-.26,1.3-.52,1.96-.76.8-.31,1.62-.6,2.45-.89.73-.25,1.46-.5,2.2-.75.99-.32,2-.63,3.03-.93.81-.24,1.63-.47,2.47-.69.06-.02.13-.04.2-.06.69-.18,1.37-.36,2.07-.52.96-.25,1.94-.48,2.93-.7.41-.08.81-.17,1.21-.26,1.45-.3,2.94-.58,4.45-.85.13-.02.26-.05.4-.07.36-.06.72-.11,1.08-.17.31-.06.62-.1.94-.15.54-.08,1.08-.16,1.63-.24.69-.1,1.38-.19,2.09-.27.57-.08,1.15-.14,1.73-.2.25-.04.48-.06.73-.08.5-.06,1.01-.11,1.52-.15.43-.04.88-.08,1.33-.12.44-.04.89-.07,1.34-.1.37-.03.72-.06,1.09-.08.07,0,.14,0,.21,0,.4-.03.78-.05,1.18-.07.43-.03.87-.06,1.31-.08.09,0,.2,0,.29-.02.84-.04,1.68-.08,2.53-.11,1.94-.07,3.89-.08,5.82-.05h.39c.31,0,.61,0,.92.03.25,0,.5,0,.74.02.29,0,.58.02.86.03.1,0,.18,0,.27,0,.61.03,1.22.06,1.83.09.12,0,.24,0,.35.02.38.03.77.05,1.17.08.12,0,.25.02.37.03.41.03.81.06,1.22.1.35.03.7.06,1.05.09.72.07,1.43.13,2.15.22.05,0,.09,0,.14,0,.47.05.93.1,1.4.16.11.02.22.03.34.05,1.39.17,2.77.37,4.16.59.48.08.95.15,1.42.24.22.03.43.07.63.1.41.07.81.14,1.23.23.86.15,1.71.32,2.57.49,0,0,0,0,.02,0,0,.01.03.02.04.02,17.6,10.53,32.5,60.63,10.25,116.51Z"/>
        <path class="cls-23" d="M908.77,545.25h0c-4.76-1.46-9.59-2.95-14.5-4.4-19.71-5.84-38.7-9.91-56.62-14.61,41.11-1,70.67-40.66,88.66-72.11,20.11-35.15,25.82-103.54,1.33-124.35,29.93,21.98,55.08,52.96,71.98,85.08h0c.87,48.06-35.9,122.64-90.84,130.38Z"/>
        <path class="cls-5" d="M954.57,521.05c-16-6.45-31.29-14.62-43.18-17.83-5.88-1.59-11.7-2.94-17.94-4.35,13.49-13.51,24.43-30.02,32.85-44.74,20.09-35.14,25.82-103.49,1.36-124.32.1.07.19.13.28.21.76.56,1.53,1.13,2.28,1.69,1.64,1.24,3.25,2.51,4.85,3.81.46.37.92.73,1.38,1.1.73.6,1.45,1.2,2.17,1.81.9.75,1.79,1.51,2.68,2.28,2.72,2.36,5.39,4.79,8,7.29.8.75,1.59,1.52,2.38,2.29,1.81,1.77,3.59,3.57,5.34,5.4.71.73,1.4,1.46,2.09,2.21,1.43,1.53,2.84,3.07,4.23,4.64.43.48.86.97,1.29,1.46,1.06,1.21,2.1,2.42,3.14,3.65.33.39.66.77.98,1.17,1.05,1.25,2.08,2.52,3.1,3.79.71.88,1.41,1.76,2.1,2.65.85,1.08,1.69,2.18,2.52,3.27.84,1.1,1.66,2.21,2.47,3.31.81,1.11,1.61,2.23,2.4,3.34.41.57.79,1.12,1.19,1.69.4.56.78,1.12,1.17,1.69.4.56.77,1.12,1.15,1.69.39.57.76,1.14,1.14,1.71.39.57.76,1.13,1.13,1.71,1.11,1.71,2.21,3.43,3.28,5.15.36.58.72,1.15,1.07,1.72.36.58.71,1.15,1.05,1.73.34.56.67,1.11,1,1.67,2.14,3.63,4.17,7.28,6.11,10.95h0c.59,32.97-16.51,78.39-45.04,106.18Z"/>
        <path class="cls-21" d="M999.62,415.56c.31,29.76-13.63,69.43-37.26,97.16-15.8-7.03-30.58-17.48-43.73-21.04-5.22-1.41-10.19-2.52-15.41-3.6,9.1-10.99,16.8-22.97,23.08-33.96,19.68-34.42,25.58-100.67,2.84-122.95-.48-.48-.97-.93-1.48-1.37.1.07.19.13.28.21.76.56,1.53,1.13,2.28,1.69,1.64,1.24,3.25,2.51,4.85,3.81.46.37.92.73,1.38,1.1.73.6,1.45,1.2,2.17,1.81.9.75,1.79,1.51,2.68,2.28,2.72,2.36,5.39,4.79,8,7.29.8.75,1.59,1.52,2.38,2.29,1.81,1.77,3.59,3.57,5.34,5.4.71.73,1.4,1.46,2.09,2.21,1.43,1.53,2.84,3.07,4.23,4.64.43.48.86.97,1.29,1.46,1.06,1.21,2.1,2.42,3.14,3.65.33.39.66.77.98,1.17,1.05,1.25,2.08,2.52,3.1,3.79.71.88,1.41,1.76,2.1,2.65.85,1.08,1.69,2.18,2.52,3.27.84,1.1,1.66,2.21,2.47,3.31.81,1.11,1.61,2.23,2.4,3.34.41.57.79,1.12,1.19,1.69.4.56.78,1.12,1.17,1.69.4.56.77,1.12,1.15,1.69.39.57.76,1.14,1.14,1.71.39.57.76,1.13,1.13,1.71,1.11,1.71,2.21,3.43,3.28,5.15.36.58.72,1.15,1.07,1.72.36.58.71,1.15,1.05,1.73.34.56.67,1.11,1,1.67,2.14,3.63,4.17,7.28,6.11,10.95h0c0,.24,0,.46,0,.7Z"/>
        <path class="cls-23" d="M1006.09,543.36c-15.5,15.71-35.07,17-57.5,12.71,47.2-13.13,68.7-51.7,72.37-80.42,4.53,27.67.44,52.19-14.87,67.71Z"/>
        <path class="cls-5" d="M994.65,529.74c-.23.02-.44.03-.67.04,16.34-16.59,24.79-37.07,26.97-54.09,0,0,0-.03,0-.04.05.29.09.59.13.89.1.65.21,1.3.3,1.96.09.66.19,1.31.26,1.96,3.27,28.68-9.27,48.04-27.01,49.29Z"/>
        <path class="cls-19" d="M1017.65,490.56c-1.62,9.34-5.04,17.83-10.86,23.14,4.85-7.61,8.43-15.5,10.86-23.14Z"/>
        <path class="cls-10" d="M830.89,310.46c32.47-2.02,100.57,6.82,158.66,100.48,6.13,9.88,11.33,20.92-1.86,4.57-26.67-33.06-79.97-85.37-158.61-99.63-5.63-1.02-10.15-4.68,1.81-5.43Z"/>
        <path class="cls-2" d="M968.53,558.65c-17.83,0-38.25-6.29-59.88-12.94-4.72-1.45-9.61-2.96-14.53-4.41-12.65-3.75-25.01-6.77-36.97-9.69-54.32-13.27-101.26-24.73-130.76-94.26-24.96,34.27-47.84,50.24-71.95,50.24-7.86,0-16.19-1.65-25.48-5.04-23.58-8.6-78.79-28.75-74.29-84.21.92-11.28,9.58-25.92,22.06-37.31,15.69-14.3,34.82-21.7,53.36-20.62,40.91,2.41,76.2,45.01,88.83,84.1,11.6-7.2,11.78-13.5,12.03-22.17.07-2.33.14-4.74.43-7.39,3.17-28.39,19.66-94.64,104.12-97.42,1.31-.04,2.64-.06,3.96-.06,73.93,0,141.3,68.59,169.63,136.35,19.71,47.14,18.72,88.21-2.65,109.86-9.94,10.07-22.33,14.96-37.9,14.96ZM726.61,435.44l.33.77c29.29,69.77,76.16,81.22,130.44,94.48,11.97,2.92,24.35,5.95,37.02,9.7,4.92,1.46,9.81,2.96,14.53,4.42,21.55,6.64,41.91,12.9,59.6,12.9,15.31,0,27.48-4.8,37.23-14.69,21.09-21.38,22.01-62.06,2.46-108.84-28.21-67.47-95.24-135.77-168.76-135.77-1.3,0-2.62.02-3.93.06-83.73,2.76-100.07,68.43-103.21,96.54-.3,2.65-.36,5.04-.43,7.35-.25,8.75-.45,15.67-12.99,23.27l-.51.31-.18-.57c-12.37-38.95-47.47-81.63-88.17-84.02-18.29-1.08-37.16,6.25-52.67,20.37-12.32,11.23-20.86,25.63-21.76,36.69-4.44,54.74,50.3,74.72,73.67,83.25,9.19,3.35,17.42,4.98,25.16,4.98,23.94,0,46.72-16.06,71.68-50.53l.49-.68Z"/>
        <path class="cls-24" d="M372.15,314.66c5.34-54.35,47.2-69.74,74.65-34.24"/>
        <path class="cls-4" d="M428.21,264.75c-18.66-8.83-38.66-.4-49.18,22.74-1.88,4.37,13.32-4.4,26.58-9.81,14.26-5.8,31.06-8.27,22.6-12.94Z"/>
        <path class="cls-11" d="M388.4,275.95c5.16-6.21,14.37-13.58,28.23-11.77,2.08.27,4.07,1.33.12,1.82-6.59.82-17.2,3.41-26.95,11.39-2.23,1.82-4.86,2.72-1.4-1.44Z"/>
        <path class="cls-2" d="M372.62,314.71l-.94-.09c2.72-27.72,15.1-47.37,33.1-52.54,14.78-4.25,30.24,2.33,42.4,18.06l-.74.58c-11.91-15.41-27-21.87-41.39-17.73-17.35,4.99-29.77,24.81-32.42,51.73Z"/>
        <path class="cls-26" d="M453.83,406.39c-5.49,9.2-10.86,17.05-16.06,23.73-43.1,55.31-75.36,30.93-75.36,30.93-4.99-4.55.71-24.66,25.45-37.23,4.19-.44,8.28-1,12.21-1.65,31.42-5.14,53.76-15.79,53.76-15.79Z"/>
        <path class="cls-6" d="M370.92,450.28c-.41-9.9,11.71-20.35,22.3-27.09-1.77.23-3.55.45-5.36.64-24.74,12.57-30.43,32.67-25.45,37.23,0,0,14.15,12.78,41.41-.53-12.23.39-32.43,1.28-32.9-10.25Z"/>
        <path class="cls-27" d="M453.62,405.97c-.22.1-22.63,10.68-53.62,15.75-3.97.65-8.07,1.21-12.19,1.64l-.17.05c-2.86,1.45-5.46,3-7.82,4.61-.51.34-1.01.69-1.49,1.05-11.68,8.43-16.98,18.3-17.9,25.1-.25,1.87-.17,3.5.24,4.83.16.55.39,1.05.66,1.49.23.37.5.69.8.96.09.06.65.49,1.69,1.08,2.78,1.59,8.9,4.37,17.63,4.37,12.9,0,33.21-6.32,56.69-36.46,5.43-6.97,10.84-14.96,16.1-23.78l.79-1.34-1.41.67ZM437.4,429.83c-23.25,29.84-43.26,36.1-55.95,36.1-5.09,0-9.29-.99-12.43-2.12h0c-4.02-1.44-6.26-3.09-6.28-3.11-.24-.22-.44-.47-.63-.77-.79-1.28-1.06-3.27-.73-5.65,1-7.3,7.17-17.29,18.84-25.35.53-.37,1.07-.73,1.62-1.08,1.91-1.24,3.97-2.43,6.16-3.55,4.11-.43,8.2-.99,12.16-1.65,26.75-4.37,47.14-12.83,52.5-15.19-5,8.27-10.12,15.8-15.25,22.38Z"/>
        <path class="cls-22" d="M453.83,406.39c-5.49,9.2-10.86,17.05-16.06,23.73-23.81,22.93-46.7,29.06-56.51,24.26-10.28-5.04,1.36-22.34,18.81-32.2,31.42-5.14,53.76-15.79,53.76-15.79Z"/>
        <path class="cls-20" d="M399.73,433.25c.79-3.36-6.75-5.42-11.6-2.42-6.57,5.56-12.45,14.78-10.22,20.16,6.17,9.5,37.7-.94,46.97-18.04,2.91-5.37-15.77-8.26-25.16.29Z"/>
        <path class="cls-17" d="M397.52,435.73c.79-3.36-6.94-5.72-11.79-2.71-2.82,2.6-10,11.42-6.65,15.61,8.07,10.07,37.99-5.48,42.41-14.73,2.06-4.32-14.58-6.72-23.97,1.83Z"/>
        <path class="cls-25" d="M388.97,456.38c-3.12,0-5.79-.53-7.92-1.57-2.61-1.28-4.04-3.43-4.12-6.21-.22-7.66,9.84-19.44,22.9-26.82l.16-.05c30.99-5.07,53.41-15.64,53.63-15.75l1.4-.67-.8,1.33c-5.26,8.82-10.67,16.81-16.09,23.78-19.88,19.16-38.43,25.96-49.17,25.96ZM400.23,422.63c-12.75,7.22-22.57,18.6-22.35,25.93.07,2.45,1.28,4.26,3.59,5.39,2,.98,4.53,1.48,7.5,1.48,10.56,0,28.83-6.74,48.47-25.65,5.09-6.54,10.21-14.07,15.21-22.34-5.35,2.36-25.72,10.81-52.42,15.19Z"/>
        <path class="cls-25" d="M394.1,442.07s0-3.04,3.74-7.56c6.07-7.33,16.46-15.7,26.81-18.25l.22.92c-13.3,3.28-27.62,17.14-30.78,24.89Z"/>
        <path class="cls-18" d="M441.89,276.21c-5.68-24.3-24.76-73.42-87.47-92.21-76.91-23.04-142.61,13.39-140.54,25.3,1.01,5.81,8.01,3.76,33.75-7.77,39.73-17.79,80.67-13.42,104.63-7.83,46.65,10.89,73.76,40.66,88.09,83.44,1.42,4.24,3.55,7.62,1.55-.93Z"/>
        <path class="cls-4" d="M441.89,276.21c-5.68-24.3-24.76-73.42-87.47-92.21-76.91-23.04-143.68,13.99-140.54,25.3.76,2.75,7.49-.33,33.23-11.85,39.74-17.79,81.59-13.13,105.55-7.54,46.66,10.89,73.36,44.46,87.68,87.24,1.42,4.24,3.55,7.62,1.55-.93Z"/>
        <path class="cls-27" d="M442.52,281.99h0c-.91,0-2.03-2.94-2.62-4.69-15.32-45.73-44.02-72.92-87.75-83.13-9.56-2.23-24.64-4.89-42.15-4.89-22.45,0-43.37,4.27-62.17,12.69-15.86,7.1-25.34,10.95-30,10.95-2.59,0-3.99-1.12-4.41-3.54-.29-1.64.53-3.62,2.43-5.88,9.31-11.07,43.61-27.46,87.65-27.46,17.27,0,34.45,2.53,51.06,7.5,27.46,8.23,49.45,23.1,65.36,44.21,13.33,17.68,19.56,36.05,22.43,48.35,1.16,4.98.82,5.42.63,5.65-.12.15-.28.23-.46.23ZM310,188.33c17.6,0,32.76,2.67,42.37,4.92,44.07,10.29,73,37.68,88.43,83.75.51,1.53,1.04,2.72,1.42,3.42-.07-.68-.26-1.9-.78-4.1-6.18-26.41-25.71-73.46-87.15-91.87-16.53-4.95-33.62-7.46-50.79-7.46-43.74,0-77.73,16.18-86.93,27.12-1.69,2-2.45,3.77-2.22,5.11.34,1.96,1.35,2.76,3.48,2.76,4.49,0,13.87-3.82,29.61-10.87,18.93-8.48,39.98-12.77,62.56-12.77Z"/>
        <path class="cls-18" d="M421.78,278.69c73.51-18.69,131.04,14.5,146.39,99.63,10.37,57.49-18.19,95.91-53.56,102.52-32.75,6.13-65.79-12.13-76.32-8.86-41.48,12.87-68.93,1.79-76.54-11.72,17.47,11.71,56.74-3.45,87.37-49.63-55.13,24.5-115.22,22.79-123.46,4.71-12.25-26.86,23.15-118.1,96.13-136.65Z"/>
        <path class="cls-14" d="M421.78,278.69c73.51-18.69,131.04,14.5,146.39,99.63,10.37,57.49-24.14,77.53-59.51,84.14-32.75,6.13-59.69-2.8-70.23.47-15.55,4.82-29.16,7.55-40.49,8.37-9.44.68-14.88-1.22-16.1-3.22-1.81-2.98,5.96-5.44,12.64-8.17,17.31-7.05,37.34-23.23,54.62-49.29-71.71,19.11-125.03,5.97-125.75-5.65-2.16-34.76,33.06-109.67,98.42-126.29Z"/>
        <path class="cls-4" d="M421.78,278.69c73.51-18.69,138.25,18.27,141.84,101.43,2.06,47.83-22.43,65.83-57.8,72.45-32.75,6.13-55.59.07-66.13,3.33-15.56,4.82-29.67,10.16-41,10.97-3.54.25-8.77.03-9.78-1.23-1.41-1.77,10.14-7.76,11.36-8.38,15.89-8.07,33.45-23.44,48.84-46.63l-3.88-1.77c-67.83,14.8-120.64,1.64-121.6-13.65,1.79-27.7,32.79-99.9,98.15-116.52Z"/>
        <path class="cls-10" d="M470.48,276.01c-58.23-3.99-92.08,24.06-107.34,41.58-6.72,7.72-6.77,8.96-.42,2.64,15.46-15.4,50.37-41.96,107.76-42.65,5.85-.07,5.84-1.17,0-1.57Z"/>
        <path class="cls-27" d="M568.64,378.24c-6.16-34.16-19.11-60.68-38.49-78.78-18.66-17.44-42.33-26.29-70.36-26.29-12.08,0-24.91,1.71-38.12,5.07-19.24,4.89-37.03,15.04-52.85,30.16-13.41,12.82-24.94,28.89-33.37,46.46-11.61,24.23-15.72,48.62-10.23,60.68,3.98,8.71,19.74,13.9,42.17,13.9,3.57,0,7.22-.13,10.93-.39.62-.04,1.24-.09,1.87-.13,22.03-1.74,45.97-7.79,67.62-17.21-25.82,38.24-54.93,51.86-72.14,51.86-5.36,0-9.93-1.22-13.58-3.65-.03-.02-.06-.04-.08-.06l-1.35-.89c.16.55.39,1.05.66,1.49v.03c4.83,8.54,18.47,17.66,42.35,17.66,10.81,0,22.5-1.92,34.76-5.72.81-.25,1.77-.38,2.94-.38,4.28,0,10.66,1.7,18.05,3.66,11.52,3.06,25.86,6.86,40.94,6.86,4.99,0,9.81-.42,14.33-1.27,18.37-3.43,34.08-14.95,44.26-32.41,11.21-19.22,14.55-43.66,9.69-70.65ZM514.53,480.38c-4.47.83-9.24,1.25-14.17,1.25-14.96,0-29.23-3.79-40.69-6.83-7.45-1.98-13.89-3.69-18.29-3.69-1.26,0-2.32.14-3.22.42-12.16,3.77-23.76,5.68-34.47,5.68-21.15,0-34.1-7.2-39.87-14.71-.22-.27-.42-.55-.61-.82,1.76.95,3.7,1.66,5.81,2.13h0c2.06.47,4.29.71,6.66.71,17.65,0,47.57-14.04,73.83-53.62l.9-1.35-1.48.65c-21.38,9.5-45.14,15.7-67.1,17.64-.67.06-1.34.11-2.01.17-4.22.32-8.37.49-12.42.49-22.05,0-37.5-4.99-41.31-13.35-5.4-11.82-1.29-35.89,10.21-59.88,8.92-18.61,35.11-63.27,85.6-76.12,13.15-3.34,25.9-5.03,37.9-5.03,57.47,0,95.79,37.04,107.92,104.29,10.54,58.45-18.77,95.54-53.18,101.98Z"/>
        <path class="cls-4" d="M470.18,307.77c49.97-52.64,89.19-8.46,72.41,48.55"/>
        <path class="cls-2" d="M542.59,356.32c8.33-29.88,2.01-57.77-15.37-67.81-15.45-8.93-36.24-1.91-57.03,19.26,0,0,2.02-3.54,6.95-7.8,18.44-15.93,36.61-20.34,50.55-12.28,15.8,9.13,22.63,32.57,18.06,59-.88,5.11-3.15,9.63-3.15,9.63Z"/>
        <path class="cls-4" d="M431.85,410.52s9.09-6.02,17.97-2.6c8.87,3.42,8.79,13.76,8.79,13.76-9.35-11.78-26.76-11.15-26.76-11.15Z"/>
        <path class="cls-27" d="M458.61,421.67c-9.42-10.56-26.59-11.15-26.76-11.15,0,0,2.93-.84,6.92-.04,4.7.94,11.08,2.79,16.34,6.77,2.79,2.11,3.5,4.42,3.5,4.42Z"/>
        <path class="cls-18" d="M532.49,352.83c-.31,6.96-2.01,14.01-5.51,20.49-2.92,5.42-7.1,10.46-12.77,14.73-.03.02-.07.05-.1.07-21.49,16.07-61.81,3.64-54.59-33.48,8.64-44.5,42.28-46.82,49.66-45.37,8.99,1.76,17.32,12.25,21.15,25.57,1.62,5.63,2.44,11.78,2.15,17.99Z"/>
        <path d="M528.96,355.14c-.3,6.58-1.92,13.25-5.24,19.37-2.78,5.12-6.76,9.88-12.15,13.92-.03.02-.07.05-.1.07-20.46,15.19-58.85,3.44-51.98-31.65,8.22-42.06,40.26-44.25,47.28-42.89,8.56,1.67,16.5,11.58,20.14,24.17,1.54,5.33,2.32,11.14,2.05,17Z"/>
        <path class="cls-7" d="M528.42,357.34c-.29,6.22-1.88,12.51-5.16,18.3-2.73,4.84-6.64,9.34-11.95,13.16-.03.02-.07.05-.09.07-20.12,14.35-57.87,3.25-51.11-29.9,8.09-39.74,39.58-41.82,46.49-40.52,8.42,1.57,16.22,10.94,19.8,22.84,1.52,5.03,2.28,10.53,2.02,16.07Z"/>
        <path class="cls-8" d="M528.42,357.34c-.02.39-.04.78-.07,1.17-.02.34-.05.69-.08,1.04,0,.09-.02.19-.03.28-.03.34-.07.68-.12,1.02-.03.25-.07.52-.1.77-.02.12-.04.24-.06.35-.05.3-.09.61-.15.92-.56,3.07-1.45,6.14-2.73,9.09-8.16,8.38-24.24,12.28-38.55,11.67-12.01-.52-22.76-4.2-26.61-11.09-.81-4.01-.82-8.55.21-13.6,8.09-39.74,39.58-41.82,46.49-40.53,8.42,1.57,16.22,10.94,19.8,22.83,1.52,5.03,2.28,10.53,2.01,16.07Z"/>
        <path class="cls-1" d="M528.42,357.34c-.29,6.22-1.88,12.51-5.16,18.3-2.73,4.84-6.64,9.34-11.95,13.16-.03.02-.07.05-.09.07-3.97,1.3-8.23,1.64-12.52.84-14.84-2.79-24.38-18.35-21.29-34.76,3.08-16.4,17.62-27.44,32.46-24.66,6.9,1.29,12.66,5.35,16.53,10.98,1.52,5.03,2.28,10.53,2.02,16.07Z"/>
        <path class="cls-13" d="M528.42,357.34c-.02.39-.04.78-.07,1.17-.02.34-.05.69-.08,1.04,0,.09-.02.19-.03.28-.03.34-.07.68-.12,1.02-.03.25-.07.52-.1.77-.02.12-.04.24-.06.35-.05.3-.09.61-.15.92-.56,3.07-1.45,6.14-2.73,9.09-8.16,8.38-24.24,12.28-38.55,11.67-7.4-6.61-11.22-17.45-9.1-28.71,3.08-16.4,17.62-27.44,32.46-24.65,6.9,1.29,12.66,5.35,16.53,10.98,1.52,5.03,2.28,10.53,2.01,16.07Z"/>
        <path d="M528.42,357.34c-.29,6.22-1.88,12.51-5.16,18.3-4.57,6.57-11.69,10.71-19.44,10.71-1.31,0-2.63-.12-3.92-.37-6.12-1.15-11.39-4.89-14.85-10.54-3.54-5.76-4.76-12.8-3.44-19.81,2.39-12.75,12.55-22.01,24.14-22.01,1.3,0,2.62.12,3.92.37,10.66,2,18.13,11.82,18.75,23.34Z"/>
        <path class="cls-12" d="M516.73,338.65c0,7.22-5.85,13.08-13.08,13.08s-13.08-5.85-13.08-13.08,5.85-13.08,13.08-13.08,13.08,5.86,13.08,13.08Z"/>
        <path class="cls-8" d="M495.53,361.98c0,3.06-2.48,5.54-5.54,5.54s-5.54-2.48-5.54-5.54,2.48-5.54,5.54-5.54,5.54,2.48,5.54,5.54Z"/>
        <path class="cls-2" d="M490.98,395.48h0c-10.56,0-20.33-4.24-26.13-11.34-5.42-6.63-7.22-15.37-5.2-25.28,3.12-15.34,9.99-26.72,20.4-33.81,9.73-6.63,19.41-7.35,23.11-7.35,1.73,0,2.87.15,3.53.27,9.3,1.74,17.97,12.71,21.09,26.69,3.96,17.75-2.09,34.4-16.18,44.53-5.65,4.06-12.97,6.3-20.61,6.3ZM503.16,318.64c-5.74,0-34.76,1.95-42.59,40.41-1.96,9.62-.23,18.08,5.01,24.49,5.63,6.89,15.12,11,25.4,11h0c7.44,0,14.57-2.18,20.06-6.12,13.77-9.9,19.68-26.18,15.82-43.56-3.03-13.62-11.4-24.29-20.34-25.97-.87-.16-2.06-.25-3.35-.25Z"/>
        <path class="cls-4" d="M486.41,284.17c.16,1.1-.87,2.15-2.31,2.37-1.44.21-2.73-.5-2.9-1.6-.16-1.1.88-2.15,2.31-2.37,1.44-.21,2.73.51,2.89,1.6Z"/>
        <path class="cls-2" d="M482.62,286.92c-1.03-.29-1.75-1.02-1.88-1.91-.2-1.35,1.02-2.65,2.71-2.9.53-.08,1.06-.05,1.55.09,1.03.29,1.75,1.02,1.88,1.91.2,1.35-1.02,2.65-2.71,2.9-.53.08-1.06.05-1.55-.09ZM484.75,283.11c-.36-.1-.76-.12-1.16-.07-1.16.17-2.03,1.01-1.91,1.83.12.79,1.23,1.37,2.36,1.2,1.16-.17,2.04-1.01,1.91-1.83-.08-.51-.54-.95-1.2-1.13Z"/>
        <path class="cls-18" d="M482.01,277.89c-10.75-24.3-37.34-64.59-97.52-73.59-79.4-11.87-139.26,33.54-135.51,45.03,1.83,5.61,8.47,2.58,32.3-12.49,36.8-23.26,77.94-24.76,102.45-22.63,45.59,3.96,75.97,27.5,96.26,64.72,3.06,5.61,6.9,10.01,2.02-1.04Z"/>
        <path class="cls-4" d="M482.01,277.89c-10.75-24.3-37.34-64.59-97.52-73.59-79.4-11.87-139.68,33.69-135.51,45.03,1.3,3.53,8.79-2.03,32.62-17.1,36.8-23.27,77.71-23.48,102.23-21.36,45.59,3.96,75.87,30.83,96.16,68.05,3.06,5.61,6.9,10.01,2.02-1.04Z"/>
        <path class="cls-27" d="M251.52,252.36c-1.46-.25-2.43-1.19-2.98-2.88-.72-2.22.62-5.43,3.88-9.29,13.2-15.61,64.8-46.42,132.15-36.36,60.88,9.1,87.49,50.38,97.88,73.86,2.84,6.44,2.45,6.95,2.21,7.26-.14.18-.37.26-.6.22h0c-1.29-.22-4.34-5.79-4.47-6.02-19.6-35.94-47.06-56.53-83.96-62.93-3.86-.67-7.87-1.19-11.93-1.54-21.83-1.89-64.13-1.48-102.16,22.56-17.44,11.03-25.92,15.83-30.02,15.12ZM387.95,205.33c-1.17-.2-2.33-.39-3.52-.57-66.97-10.01-118.2,20.55-131.29,36.03-3,3.54-4.31,6.52-3.7,8.38.44,1.36,1.14,2.05,2.25,2.25,3.77.65,12.47-4.31,29.35-14.98,38.26-24.19,80.8-24.61,102.74-22.7,4.09.36,8.13.88,12.01,1.55,37.2,6.46,64.88,27.2,84.62,63.41,1.41,2.58,2.69,4.41,3.39,5.17-.17-.73-.68-2.33-2.22-5.8-10.11-22.85-35.71-62.69-93.63-72.74Z"/>
        <path class="cls-18" d="M655.51,482.11c9.78-7.61,40.53,13.86,42.64,17.82,63.86-114.27,142.39-187.48,163.29-187.55,30.31-.1,115.76,192.02,136.18,223.12,20.42,31.1,119.82,131.27,138.07,131.94,12.72.47,39.15,5.18,39.15,17.91,0,13.67-42.65,15.8-57.53,8.48-22.83-11.24-115.61-107.25-139.48-146.83-23.88-39.58-50.26-115.48-117.8-207.06-93.93,76.5-131.71,184.92-150.87,189.81-23.42,5.98-69.66-35.19-53.64-47.65Z"/>
        <path class="cls-14" d="M655.51,482.11c9.78-7.61,40.53,13.86,42.64,17.82,63.86-114.27,142.39-187.48,163.29-187.55,30.31-.1,115.76,192.02,136.18,223.12,20.42,31.1,119.82,131.27,138.07,131.94,12.72.47,38.36,5.21,39.15,17.91.47,7.58-40.29,6.07-55.17-1.26-22.83-11.24-113.88-103.35-137.75-142.94-23.88-39.58-50.22-113.84-117.77-205.41-83.29,41.11-137.43,178.86-156.48,183.73-23.42,5.98-68.17-24.9-52.15-37.36Z"/>
        <path class="cls-4" d="M1135.68,667.45c-18.25-.67-117.65-100.84-138.07-131.94-20.42-31.1-105.87-223.22-136.18-223.12-20.89.07-99.43,73.28-163.29,187.55-.87-1.64-6.67-6.29-13.85-10.64-1.68,2.56-2.51,5.97-3.72,8.99-1.6,7.21,2.85,13.07,8.95,14.91,4.79,1.44,10.54,2.55,16.08.7,18.65-6.24,61.11-138.29,161.01-182.27,67.54,91.57,95.16,166.09,119.04,205.67,23.87,39.58,112.59,129.28,135.42,140.52,14.88,7.32,57.96,7.3,49.09-.55-8.14-6.71-24.95-9.46-34.49-9.82Z"/>
        <path class="cls-2" d="M1141.81,698.45c-10.15,0-19.38-1.56-24.71-4.19-22.48-11.06-115.37-106.71-139.68-147.01-7.42-12.3-15.16-28.27-24.13-46.76-19.83-40.91-46.98-96.9-93.35-159.86-59.05,48.22-95.58,108.61-119.76,148.61-14.25,23.57-23.67,39.13-30.91,40.98-1.57.4-3.29.61-5.11.61-18.75,0-46.27-21.66-51.5-36.89-1.81-5.26-.92-9.48,2.57-12.19,1.47-1.14,3.44-1.72,5.87-1.72,12.45,0,33.28,14.63,37,19.03,28.24-50.41,62.83-98.7,97.46-136.05,28.75-31.01,54.61-51.06,65.88-51.1,22.11,0,70.93,96.36,106.58,166.72,13.55,26.75,24.26,47.88,29.99,56.61,9.81,14.95,38.51,46.73,69.78,77.3,34.56,33.79,59.95,54.13,67.91,54.43,10.27.38,39.6,4.57,39.6,18.38,0,9-17.36,13.09-33.49,13.09ZM860.1,339.27l.29.4c46.61,63.19,73.85,119.38,93.74,160.41,8.95,18.47,16.69,34.42,24.09,46.69,24.26,40.21,116.89,135.62,139.29,146.65,5.21,2.56,14.29,4.09,24.3,4.09,15.68,0,32.55-3.8,32.55-12.15,0-13.06-28.66-17.06-38.7-17.44-18.57-.69-117.69-100.55-138.44-132.15-5.76-8.78-16.48-29.93-30.05-56.71-33.54-66.18-84.21-166.2-105.72-166.2-11.04.04-36.62,19.97-65.21,50.8-34.73,37.45-69.42,85.93-97.69,136.51l-.42.75-.41-.76c-1.69-3.17-24.11-19.19-36.64-19.19-2.22,0-4,.51-5.29,1.52-3.18,2.48-3.94,6.23-2.26,11.14,5.14,14.98,32.18,36.26,50.61,36.26,1.74,0,3.38-.2,4.87-.58,6.87-1.75,16.71-18.03,30.34-40.56,24.28-40.14,60.96-100.79,120.36-149.17l.39-.31Z"/>
        <path class="cls-2" d="M693.47,510.21s.67-4.67,4.27-10.53l.81.48c-3.8,6.41-5.06,10.01-5.08,10.04Z"/>
        <path class="cls-18" d="M606.5,475.5c6.3-10.67,41.34,7.49,43.44,11.44-4.81-41.91,1.21-151.23,21.27-157.08,17.41-5.07,94.52,172.28,117.71,228.32,40.15,53.22,101.56,111.47,119.79,112.72,18.22,1.26,43.98,6.91,40.84,16.34-3.14,9.42-36.44,20.11-57.8,6.28-21.36-13.82-111.21-107.44-121.89-129.43-10.68-21.99-35.18-107.44-91.1-178.43,6.28,48.38,3.77,129.26-15.39,134.15-23.42,5.98-66.51-27.95-56.86-44.3Z"/>
        <path class="cls-14" d="M606.5,475.5c6.3-10.67,41.34,7.49,43.44,11.44-4.81-41.91,1.21-151.23,21.27-157.08,17.41-5.07,94.52,172.28,117.71,228.32,40.15,53.22,101.56,111.47,119.79,112.72,18.22,1.26,43.16,6.68,40.84,16.34-1.41,5.89-37.92,6.55-53-2.61-21.74-13.21-109.96-100.98-120.64-122.97-10.68-21.99-44.05-123.63-99.97-194.62,11.86,59.97,2.19,136.25-16.97,141.14-23.42,5.98-62.11-16.32-52.46-32.67Z"/>
        <path class="cls-4" d="M908.71,670.9c-18.22-1.26-79.64-59.5-119.79-112.72-23.19-56.04-100.3-233.39-117.71-228.32-20.06,5.85-28.12,126.09-19.48,167.99-.59-1.1-3.57-8.52-8.33-13.55-4.92-5.2-11.7-8.02-17.33-9.8-7.2.14-3.17,22.05,3.11,24.99,9.23,4,19.71,5.92,28.51,3.02,14.29-4.71,23.28-84.14,16.1-149.85,55.92,71,94.56,184.52,105.24,206.51,10.68,21.99,98.5,107.77,120.24,120.99,15.08,9.16,52.3,6.6,48.92,2.08-5.45-6.56-24.69-10.33-39.5-11.35Z"/>
        <path class="cls-2" d="M916.34,700.61c-9.5,0-18.09-2.31-24.85-6.69-21.06-13.63-111.42-107.72-122.06-129.62-2.36-4.85-5.4-12.82-9.25-22.91-13.25-34.7-37.81-99.05-80.75-154.1,6.25,50.41,3.16,128.09-15.96,132.97-1.85.47-3.88.71-6.03.71-18.23,0-41.73-16.38-49.77-30.47-3.4-5.96-3.94-11.23-1.58-15.24,1.39-2.35,4.14-3.55,8.17-3.55,11.31,0,30.19,9.45,35.06,13.81-4.31-41.28,1.06-150.08,21.76-156.12.29-.08.59-.12.9-.12,22.02,0,115.42,224,117.35,228.66,40.34,53.46,101.7,111.27,119.41,112.49,16.36,1.13,36.02,5.42,40.53,12.16,1.03,1.53,1.27,3.15.72,4.8-2.08,6.24-16.91,13.22-33.65,13.22ZM678.07,384.03l1.06,1.34c43.67,55.45,68.57,120.66,81.94,155.69,3.84,10.07,6.88,18.02,9.22,22.83,10.6,21.83,100.71,115.65,121.72,129.24,6.61,4.28,15.03,6.54,24.34,6.54,16.09,0,30.82-6.76,32.76-12.58.46-1.38.26-2.68-.61-3.97-4.15-6.19-23.17-10.59-39.82-11.74-18.26-1.26-78.89-58.24-120.13-112.91l-.06-.1c-24.48-59.18-98.44-228.14-116.5-228.14-.22,0-.44.03-.64.09-19.74,5.75-25.61,115.79-20.93,156.58l.28,2.47-1.17-2.19c-1.51-2.83-22.77-14.5-35.27-14.5-3.67,0-6.15,1.04-7.35,3.08-2.19,3.71-1.64,8.65,1.58,14.3,7.92,13.87,31.03,30,48.95,30,2.07,0,4.03-.23,5.8-.68,18.19-4.64,21.61-83.04,15.04-133.63l-.22-1.7Z"/>
        <path class="cls-2" d="M678.29,385.71c-1.56-14.84-5.61-37.13-5.65-37.35,0,0,1.57,3.36,2.42,8.41,1.33,7.91,3.21,19.76,4.17,28.84l-.94.1Z"/>
        <path class="cls-2" d="M650.2,492.39c-.31-2.02-.58-3.96-.72-5.4l.94-.09c.46,4.79,2.39,15.12,2.41,15.22,0,0-1.9-5.01-2.63-9.73Z"/>
        <path class="cls-18" d="M583.88,500.17s-7.6-40.12,9.43-42.73c22.62-3.47,39.07,82.25,25.44,88.44-15.55,7.07-50.42-20.97-90.47-63.76-19.04,39.11-111.68,215.96-137.12,224.45-25.45,8.48-53.25,5.65-53.25-2.83s35.61-10.4,49.01-24.34c23.09-24.03,39.19-52.65,66.91-102.88,40.05-72.57,56.57-117.38,69.37-119.03,12.15-1.57,60.68,42.69,60.68,42.69Z"/>
        <path class="cls-14" d="M583.88,500.17s-7.6-40.12,9.43-42.73c22.62-3.47,33.13,71.88,19.5,78.07-15.55,7.07-45.46-17.13-85.51-59.92-19.04,39.11-116,216.84-141.45,225.32-25.45,8.48-47.95,9.19-47.95,2.83,0-8.48,35.61-10.4,49.01-24.34,23.09-24.03,39.19-52.65,66.91-102.88,40.05-72.57,56.57-117.38,69.37-119.03,12.15-1.57,60.68,42.69,60.68,42.69Z"/>
        <path class="cls-4" d="M600.77,515.48c-4.24-14.29-18.02-24.24-18.5-29.37-.96-10.23-.27-20.5,10.56-20.82,17.83-.52,31.45,58.37,17.82,64.57-15.55,7.07-45.13-21.4-84.5-59.85-19.04,39.11-116.06,218.46-141.6,226.66-42.8,13.75-45.32,4.03-43.07,2.75,9.37-5.36,34.62-8.78,45.43-20.03,23.09-24.03,39.19-52.65,66.91-102.88,40.05-72.57,56.57-117.38,69.37-119.03,10.92-1.41,51.23,34.2,59.28,41.42.9.81,12.77,11.88,18.29,16.58Z"/>
        <path class="cls-2" d="M360.15,712.15c-13.8,0-22.72-3.31-22.72-8.42,0-4.44,8.24-6.99,18.68-10.22,10.52-3.26,23.61-7.31,30.46-14.45,22.7-23.63,38.53-51.49,66.84-102.78,13.69-24.81,24.74-46.59,33.62-64.09,17.69-34.86,27.43-54.06,36.11-55.18.23-.03.47-.05.73-.05,12.26,0,52.22,35.54,59.31,41.93-.95-5.73-3.99-27.61,2.91-37.37,1.83-2.58,4.23-4.11,7.14-4.56.47-.07.94-.11,1.41-.11,12.24,0,21.8,24.06,26.26,44.66,4.3,19.86,5.01,41.61-1.96,44.78-1.65.75-3.55,1.13-5.65,1.13-20.16,0-57.19-34.95-84.9-64.5-22.52,46.13-112.15,215.75-137.1,224.07-9.95,3.32-21.02,5.15-31.15,5.15ZM523.87,457.9c-.21,0-.42.01-.61.04-8.18,1.05-18.42,21.24-35.38,54.67-8.88,17.5-19.93,39.29-33.64,64.12-28.35,51.36-44.2,79.27-66.99,102.98-7.02,7.31-20.24,11.41-30.86,14.7-9.67,3-18.01,5.58-18.01,9.32,0,4.4,8.95,7.48,21.78,7.48,10.03,0,20.99-1.81,30.85-5.1,24.78-8.26,114.87-179.06,136.85-224.2l.3-.62.47.5c39.62,42.33,68.9,64.7,84.68,64.7,1.96,0,3.73-.35,5.25-1.05,5.66-2.57,6.27-21.36,1.43-43.72-4.74-21.86-14.41-43.92-25.34-43.92-.42,0-.85.03-1.27.1-2.65.41-4.84,1.81-6.51,4.17-7.58,10.71-2.57,37.73-2.52,38l.26,1.39-1.04-.95c-.47-.42-46.88-42.61-59.7-42.61Z"/>
        <path class="cls-2" d="M610.66,525.25c-.17-.16-17.18-16-27.09-24.73l.62-.71c5.23,4.62,12.45,11.21,18.12,16.43,5.07,4.67,8.35,9.01,8.35,9.01Z"/>
        <path class="cls-4" d="M866.61,333.35s-3.14,3.77-6.6,6.6"/>
        <path class="cls-2" d="M860.31,340.31l-.6-.73c3.38-2.77,6.5-6.5,6.53-6.53,0,0-2.49,4.44-5.94,7.26Z"/>
        <path class="cls-2" d="M838.6,277.03l-.59-.73c3.65-2.94,6.36-3.31,6.36-3.31-.02.01-2.2,1.17-5.77,4.05Z"/>
        <path class="cls-10" d="M513.92,288.09c8.74-1.17,21.43,1.37,27.4,23,.99,3.58,1.62,9.17-.14,4.75-3.76-9.47-12.19-24.56-27.95-25.66-2.62-.18-4.62-1.38.69-2.09Z"/>
        <path class="cls-16" d="M380.58,448.62c1.69,1.7,6.3,4.54,16.45.54.92-.36,1.68-.86-.19-.42-4.07.95-11.22,2.09-15.74-.29-.48-.25-1.09-.42-.52.17Z"/>
        <path class="cls-11" d="M848.51,319.46c4.71-3.02,10-5.58,13.8-5.05,5.83.82,16.44,12.03,24.94,23.26,3.97,5.25,5.15,8.54-1.01,1.5-8.02-9.16-18.54-19.83-24.5-20.38-3.94-.36-8.3.79-12.22,2.38-6.57,2.66-6.91,2.06-1.01-1.72Z"/>
        <path class="cls-11" d="M827.66,256.86c4.74-3.05,10.09-5.66,13.91-5.12,6.23.87,17.94,13.64,26.69,25.6,3.25,4.44,4.38,7.47-.79,1.43-8.18-9.57-20-22.06-26.46-22.65-4.16-.38-8.8.93-12.89,2.66-6.25,2.64-6.3,1.84-.46-1.92Z"/>
        <path class="cls-11" d="M659.94,351.93c2.28-7.86,6.76-20.51,12.06-20.62,5.06-.1,12.47,10.87,16.95,18.39,2.33,3.91,2.22,4.48-.19,1.28-4.92-6.53-13.01-16.35-16.84-15.74-3.27.52-8.34,10.79-11.27,17.36-1.4,3.14-1.74,2.87-.71-.67Z"/>
        <path class="cls-11" d="M503.88,484.95c5.38-10.17,13.63-24.31,18.74-26.02,4.66-1.55,15.81,5.94,23.26,11.56,4.22,3.18,4.21,3.66.03,1.07-7.39-4.58-18.35-10.71-22.46-9.56-4.13,1.16-13.18,14.59-19.15,24.08-3.34,5.31-3.55,4.8-.42-1.12Z"/>
        <path class="cls-11" d="M616.5,303.95c1.27-2.86,3.35-6.16,6.22-6.48,2.82-.31,5.14,1.25,7.54,4.15,1.01,1.22,1.98,3.01.33,1.61-2.02-1.71-4.83-3.57-7.32-3.31-2.23.23-4.48,1.97-6.64,5.36-.55.87-1.14.93-.13-1.34Z"/>
        <path class="cls-9" d="M237.84,191.47c15.25-7.08,46.59-17.73,89.24-12.13,6.87.9,13.29,2.1.02.98-20.98-1.77-54.64-1.44-88.73,11.98-3.64,1.43-7.31,2.31-.53-.84Z"/>
        <path class="cls-9" d="M274.06,225.98c13.25-8.39,37.18-20.24,69.9-23.07,4.56-.4,8.83-.41.13.85-16.09,2.33-43.58,8.26-69.59,23.08-4.18,2.38-8.26,4.09-.45-.86Z"/>
        <path class="cls-10" d="M1159.23,676.47c-.25,1.51-5.08,1.96-10.79,1.02-5.71-.95-10.13-2.94-9.88-4.45.25-1.51,5.08-1.96,10.79-1.02,5.71.95,10.13,2.94,9.89,4.45Z"/>
        <path class="cls-10" d="M1108.41,573.33c-.25,1.51-6.64,1.71-14.28.44-7.64-1.27-13.62-3.52-13.38-5.03.25-1.51,6.64-1.7,14.28-.44,7.64,1.27,13.62,3.51,13.37,5.02Z"/>
        <path class="cls-10" d="M933.53,680.26c-.25,1.51-4.51,2.06-9.52,1.23-5.01-.83-8.87-2.73-8.62-4.24.25-1.51,4.51-2.06,9.52-1.23,5.01.83,8.87,2.72,8.62,4.23Z"/>
        <path class="cls-10" d="M362.46,696.38c.41,1.47-2.57,3.6-6.66,4.75-4.09,1.15-7.75.89-8.16-.58-.42-1.47,2.57-3.6,6.66-4.75,4.09-1.15,7.75-.89,8.16.58Z"/>
        <path class="cls-10" d="M350.69,603.78c.41,1.47-3.01,3.72-7.65,5.03-4.64,1.31-8.73,1.17-9.15-.3-.42-1.47,3.01-3.72,7.65-5.03,4.64-1.31,8.73-1.17,9.15.3Z"/>
        <path class="cls-10" d="M481.88,284.25s-.37,2.07,2.48,1.64c0,0-2.31,0-2.48-1.64Z"/>
        <path class="cls-3" d="M484.39,283.11s2.33.42.97,2.27c0,0,.87-1.6-.97-2.27Z"/>
      </g>
    </g>
  </g>
</svg>